<svg width="37" height="37" viewBox="0 0 37 37" fill="none" xmlns="http://www.w3.org/2000/svg">
<rect width="37" height="37" rx="18.5" fill="#707279"/>
<mask id="mask0_263_2961" style="mask-type:alpha" maskUnits="userSpaceOnUse" x="2" y="2" width="33" height="33">
<rect x="2.5" y="2.5" width="32" height="32" fill="#D9D9D9"/>
</mask>
<g mask="url(#mask0_263_2961)">
<path d="M10.5314 25.5561C11.6648 24.7151 12.8994 24.051 14.2353 23.5638C15.5711 23.0766 16.9929 22.833 18.5006 22.833C20.0083 22.833 21.4301 23.0766 22.766 23.5638C24.1019 24.051 25.3365 24.7151 26.4698 25.5561C27.2989 24.645 27.9557 23.5903 28.4404 22.392C28.925 21.1937 29.1673 19.8962 29.1673 18.4996C29.1673 15.5441 28.1284 13.0274 26.0506 10.9496C23.9728 8.87186 21.4562 7.83298 18.5006 7.83298C15.5451 7.83298 13.0284 8.87186 10.9506 10.9496C8.87284 13.0274 7.83395 15.5441 7.83395 18.4996C7.83395 19.8962 8.07626 21.1937 8.56088 22.392C9.04551 23.5903 9.70235 24.645 10.5314 25.5561ZM18.501 19.4996C17.2837 19.4996 16.257 19.0818 15.4212 18.2462C14.5853 17.4105 14.1673 16.384 14.1673 15.1667C14.1673 13.9494 14.5851 12.9227 15.4208 12.0868C16.2564 11.251 17.2829 10.833 18.5002 10.833C19.7176 10.833 20.7442 11.2508 21.5801 12.0864C22.416 12.9221 22.8339 13.9486 22.8339 15.1659C22.8339 16.3833 22.4161 17.4099 21.5805 18.2458C20.7448 19.0817 19.7184 19.4996 18.501 19.4996ZM18.5006 31.1663C16.7416 31.1663 15.0917 30.8355 13.5507 30.1739C12.0096 29.5124 10.669 28.6116 9.52885 27.4714C8.3887 26.3312 7.48785 24.9906 6.82632 23.4496C6.16476 21.9086 5.83398 20.2586 5.83398 18.4996C5.83398 16.7407 6.16476 15.0907 6.82632 13.5497C7.48785 12.0087 8.3887 10.6681 9.52885 9.52788C10.669 8.38772 12.0096 7.48688 13.5507 6.82534C15.0917 6.16379 16.7416 5.83301 18.5006 5.83301C20.2596 5.83301 21.9096 6.16379 23.4506 6.82534C24.9916 7.48688 26.3322 8.38772 27.4724 9.52788C28.6125 10.6681 29.5134 12.0087 30.1749 13.5497C30.8365 15.0907 31.1673 16.7407 31.1673 18.4996C31.1673 20.2586 30.8365 21.9086 30.1749 23.4496C29.5134 24.9906 28.6125 26.3312 27.4724 27.4714C26.3322 28.6116 24.9916 29.5124 23.4506 30.1739C21.9096 30.8355 20.2596 31.1663 18.5006 31.1663ZM18.5006 29.1663C19.704 29.1663 20.8643 28.9727 21.9814 28.5855C23.0985 28.1984 24.0904 27.6569 24.9571 26.9612C24.0904 26.2911 23.1113 25.7689 22.0199 25.3945C20.9284 25.0201 19.7553 24.8329 18.5006 24.8329C17.2459 24.8329 16.0707 25.018 14.975 25.3881C13.8792 25.7582 12.9023 26.2825 12.0442 26.9612C12.9109 27.6569 13.9027 28.1984 15.0199 28.5855C16.1369 28.9727 17.2972 29.1663 18.5006 29.1663ZM18.5006 17.4997C19.1639 17.4997 19.7186 17.2766 20.1648 16.8304C20.6109 16.3843 20.834 15.8296 20.834 15.1663C20.834 14.5031 20.6109 13.9484 20.1648 13.5022C19.7186 13.056 19.1639 12.8329 18.5006 12.8329C17.8374 12.8329 17.2827 13.056 16.8365 13.5022C16.3903 13.9484 16.1673 14.5031 16.1673 15.1663C16.1673 15.8296 16.3903 16.3843 16.8365 16.8304C17.2827 17.2766 17.8374 17.4997 18.5006 17.4997Z" fill="white"/>
</g>
</svg>
