<svg width="32" height="32" viewBox="0 0 32 32" fill="none" xmlns="http://www.w3.org/2000/svg">
<path d="M23.1213 7.27984C22.8049 7.27984 22.4955 7.37368 22.2324 7.54949C21.9693 7.7253 21.7642 7.97518 21.6431 8.26754C21.522 8.55991 21.4903 8.88161 21.552 9.19198C21.6138 9.50235 21.7662 9.78745 21.9899 10.0112C22.2137 10.235 22.4988 10.3874 22.8092 10.4491C23.1195 10.5108 23.4412 10.4791 23.7336 10.358C24.026 10.2369 24.2758 10.0319 24.4517 9.76875C24.6275 9.50563 24.7213 9.19629 24.7213 8.87984C24.7213 8.45549 24.5527 8.04853 24.2527 7.74847C23.9526 7.44841 23.5457 7.27984 23.1213 7.27984ZM29.2546 10.5065C29.2287 9.40024 29.0215 8.30571 28.6413 7.2665C28.3023 6.37735 27.7746 5.57221 27.0946 4.9065C26.4344 4.22307 25.6274 3.69874 24.7346 3.37317C23.6982 2.98138 22.6024 2.76945 21.4946 2.7465C20.0813 2.6665 19.628 2.6665 16.0013 2.6665C12.3746 2.6665 11.9213 2.6665 10.508 2.7465C9.40017 2.76945 8.30443 2.98138 7.26797 3.37317C6.37687 3.70204 5.57055 4.22592 4.90797 4.9065C4.22454 5.56674 3.7002 6.37376 3.37464 7.2665C2.98285 8.30296 2.77092 9.39871 2.74797 10.5065C2.66797 11.9198 2.66797 12.3732 2.66797 15.9998C2.66797 19.6265 2.66797 20.0798 2.74797 21.4932C2.77092 22.601 2.98285 23.6967 3.37464 24.7332C3.7002 25.6259 4.22454 26.4329 4.90797 27.0932C5.57055 27.7738 6.37687 28.2976 7.26797 28.6265C8.30443 29.0183 9.40017 29.2302 10.508 29.2532C11.9213 29.3332 12.3746 29.3332 16.0013 29.3332C19.628 29.3332 20.0813 29.3332 21.4946 29.2532C22.6024 29.2302 23.6982 29.0183 24.7346 28.6265C25.6274 28.3009 26.4344 27.7766 27.0946 27.0932C27.7776 26.4299 28.3058 25.6241 28.6413 24.7332C29.0215 23.694 29.2287 22.5994 29.2546 21.4932C29.2546 20.0798 29.3346 19.6265 29.3346 15.9998C29.3346 12.3732 29.3346 11.9198 29.2546 10.5065ZM26.8546 21.3332C26.8449 22.1795 26.6916 23.0181 26.4013 23.8132C26.1884 24.3934 25.8465 24.9177 25.4013 25.3465C24.9688 25.7872 24.4456 26.1284 23.868 26.3465C23.0729 26.6368 22.2343 26.7901 21.388 26.7998C20.0546 26.8665 19.5613 26.8798 16.0546 26.8798C12.548 26.8798 12.0546 26.8798 10.7213 26.7998C9.84249 26.8163 8.96743 26.681 8.13464 26.3998C7.58234 26.1706 7.08311 25.8302 6.66797 25.3998C6.22542 24.9715 5.88776 24.4468 5.6813 23.8665C5.35578 23.06 5.17523 22.2024 5.14797 21.3332C5.14797 19.9998 5.06797 19.5065 5.06797 15.9998C5.06797 12.4932 5.06797 11.9998 5.14797 10.6665C5.15395 9.80125 5.3119 8.94376 5.61464 8.13317C5.84937 7.57039 6.20966 7.06872 6.66797 6.6665C7.07305 6.20806 7.57369 5.84397 8.13464 5.59984C8.94737 5.30656 9.80397 5.15328 10.668 5.1465C12.0013 5.1465 12.4946 5.0665 16.0013 5.0665C19.508 5.0665 20.0013 5.0665 21.3346 5.1465C22.181 5.15621 23.0196 5.3095 23.8146 5.59984C24.4205 5.82471 24.9644 6.1903 25.4013 6.6665C25.8382 7.07608 26.1797 7.57681 26.4013 8.13317C26.6976 8.94508 26.851 9.80221 26.8546 10.6665C26.9213 11.9998 26.9346 12.4932 26.9346 15.9998C26.9346 19.5065 26.9213 19.9998 26.8546 21.3332ZM16.0013 9.15984C14.6491 9.16247 13.3279 9.56587 12.2048 10.3191C11.0818 11.0723 10.2071 12.1414 9.69148 13.3915C9.17582 14.6416 9.04227 16.0165 9.30769 17.3424C9.57312 18.6684 10.2256 19.8859 11.1827 20.8411C12.1399 21.7964 13.3587 22.4465 14.6851 22.7094C16.0116 22.9722 17.3862 22.836 18.6353 22.3179C19.8843 21.7998 20.9518 20.9231 21.7028 19.7986C22.4538 18.674 22.8546 17.3521 22.8546 15.9998C22.8564 15.1 22.6802 14.2086 22.3363 13.3771C21.9923 12.5456 21.4874 11.7903 20.8505 11.1546C20.2135 10.5189 19.4572 10.0154 18.625 9.67308C17.7928 9.33074 16.9012 9.15632 16.0013 9.15984ZM16.0013 20.4398C15.1232 20.4398 14.2647 20.1794 13.5346 19.6916C12.8044 19.2037 12.2353 18.5103 11.8993 17.699C11.5632 16.8876 11.4753 15.9949 11.6466 15.1336C11.8179 14.2724 12.2408 13.4812 12.8617 12.8603C13.4827 12.2393 14.2738 11.8165 15.1351 11.6452C15.9964 11.4738 16.8891 11.5618 17.7004 11.8978C18.5117 12.2339 19.2052 12.803 19.693 13.5331C20.1809 14.2633 20.4413 15.1217 20.4413 15.9998C20.4413 16.5829 20.3265 17.1603 20.1033 17.699C19.8802 18.2376 19.5532 18.7271 19.1409 19.1394C18.7286 19.5517 18.2391 19.8787 17.7004 20.1019C17.1617 20.325 16.5844 20.4398 16.0013 20.4398Z" fill="#F4F4F4"/>
</svg>
