<svg width="33" height="32" viewBox="0 0 33 32" fill="none" xmlns="http://www.w3.org/2000/svg">
<path d="M23.6203 7.27984C23.3039 7.27984 22.9945 7.37368 22.7314 7.54949C22.4683 7.7253 22.2632 7.97518 22.1421 8.26754C22.021 8.55991 21.9893 8.88161 22.0511 9.19198C22.1128 9.50235 22.2652 9.78745 22.489 10.0112C22.7127 10.235 22.9978 10.3874 23.3082 10.4491C23.6186 10.5108 23.9403 10.4791 24.2326 10.358C24.525 10.2369 24.7749 10.0319 24.9507 9.76875C25.1265 9.50563 25.2203 9.19629 25.2203 8.87984C25.2203 8.45549 25.0518 8.04853 24.7517 7.74847C24.4516 7.44841 24.0447 7.27984 23.6203 7.27984ZM29.7537 10.5065C29.7277 9.40024 29.5205 8.30571 29.1403 7.2665C28.8013 6.37735 28.2736 5.57221 27.5937 4.9065C26.9334 4.22307 26.1264 3.69874 25.2337 3.37317C24.1972 2.98138 23.1015 2.76945 21.9937 2.7465C20.5803 2.6665 20.127 2.6665 16.5003 2.6665C12.8737 2.6665 12.4203 2.6665 11.007 2.7465C9.8992 2.76945 8.80345 2.98138 7.76699 3.37317C6.87589 3.70204 6.06957 4.22592 5.40699 4.9065C4.72356 5.56674 4.19923 6.37376 3.87366 7.2665C3.48187 8.30296 3.26994 9.39871 3.24699 10.5065C3.16699 11.9198 3.16699 12.3732 3.16699 15.9998C3.16699 19.6265 3.16699 20.0798 3.24699 21.4932C3.26994 22.601 3.48187 23.6967 3.87366 24.7332C4.19923 25.6259 4.72356 26.4329 5.40699 27.0932C6.06957 27.7738 6.87589 28.2976 7.76699 28.6265C8.80345 29.0183 9.8992 29.2302 11.007 29.2532C12.4203 29.3332 12.8737 29.3332 16.5003 29.3332C20.127 29.3332 20.5803 29.3332 21.9937 29.2532C23.1015 29.2302 24.1972 29.0183 25.2337 28.6265C26.1264 28.3009 26.9334 27.7766 27.5937 27.0932C28.2767 26.4299 28.8048 25.6241 29.1403 24.7332C29.5205 23.694 29.7277 22.5994 29.7537 21.4932C29.7537 20.0798 29.8337 19.6265 29.8337 15.9998C29.8337 12.3732 29.8337 11.9198 29.7537 10.5065ZM27.3537 21.3332C27.344 22.1795 27.1907 23.0181 26.9003 23.8132C26.6874 24.3934 26.3455 24.9177 25.9003 25.3465C25.4679 25.7872 24.9446 26.1284 24.367 26.3465C23.5719 26.6368 22.7334 26.7901 21.887 26.7998C20.5537 26.8665 20.0603 26.8798 16.5537 26.8798C13.047 26.8798 12.5537 26.8798 11.2203 26.7998C10.3415 26.8163 9.46645 26.681 8.63366 26.3998C8.08137 26.1706 7.58213 25.8302 7.16699 25.3998C6.72444 24.9715 6.38678 24.4468 6.18033 23.8665C5.8548 23.06 5.67425 22.2024 5.64699 21.3332C5.64699 19.9998 5.56699 19.5065 5.56699 15.9998C5.56699 12.4932 5.56699 11.9998 5.64699 10.6665C5.65297 9.80125 5.81093 8.94376 6.11366 8.13317C6.34839 7.57039 6.70868 7.06872 7.16699 6.6665C7.57208 6.20806 8.07271 5.84397 8.63366 5.59984C9.44639 5.30656 10.303 5.15328 11.167 5.1465C12.5003 5.1465 12.9937 5.0665 16.5003 5.0665C20.007 5.0665 20.5003 5.0665 21.8337 5.1465C22.68 5.15621 23.5186 5.3095 24.3137 5.59984C24.9196 5.82471 25.4634 6.1903 25.9003 6.6665C26.3373 7.07608 26.6787 7.57681 26.9003 8.13317C27.1967 8.94508 27.35 9.80221 27.3537 10.6665C27.4203 11.9998 27.4337 12.4932 27.4337 15.9998C27.4337 19.5065 27.4203 19.9998 27.3537 21.3332ZM16.5003 9.15984C15.1481 9.16247 13.8269 9.56587 12.7039 10.3191C11.5808 11.0723 10.7062 12.1414 10.1905 13.3915C9.67485 14.6416 9.54129 16.0165 9.80672 17.3424C10.0721 18.6684 10.7246 19.8859 11.6818 20.8411C12.6389 21.7964 13.8577 22.4465 15.1841 22.7094C16.5106 22.9722 17.8852 22.836 19.1343 22.3179C20.3834 21.7998 21.4508 20.9231 22.2018 19.7985C22.9528 18.674 23.3537 17.3521 23.3537 15.9998C23.3554 15.1 23.1793 14.2086 22.8353 13.3771C22.4914 12.5456 21.9864 11.7903 21.3495 11.1546C20.7126 10.5189 19.9563 10.0154 19.1241 9.67308C18.2919 9.33074 17.4002 9.15632 16.5003 9.15984ZM16.5003 20.4398C15.6222 20.4398 14.7637 20.1794 14.0336 19.6916C13.3034 19.2037 12.7344 18.5103 12.3983 17.699C12.0622 16.8876 11.9743 15.9949 12.1456 15.1336C12.317 14.2724 12.7398 13.4812 13.3608 12.8603C13.9817 12.2393 14.7729 11.8165 15.6341 11.6452C16.4954 11.4738 17.3881 11.5618 18.1994 11.8978C19.0107 12.2339 19.7042 12.803 20.1921 13.5331C20.6799 14.2633 20.9403 15.1217 20.9403 15.9998C20.9403 16.5829 20.8255 17.1603 20.6024 17.699C20.3792 18.2376 20.0522 18.7271 19.6399 19.1394C19.2276 19.5517 18.7381 19.8787 18.1994 20.1019C17.6608 20.325 17.0834 20.4398 16.5003 20.4398Z" fill="#F4F4F4"/>
</svg>
