<svg width="20" height="20" viewBox="0 0 20 20" fill="none" xmlns="http://www.w3.org/2000/svg">
<mask id="mask0_261_2913" style="mask-type:alpha" maskUnits="userSpaceOnUse" x="0" y="0" width="20" height="20">
<rect width="20" height="20" fill="#D9D9D9"/>
</mask>
<g mask="url(#mask0_261_2913)">
<path d="M10.0007 9.99984C10.459 9.99984 10.8513 9.83664 11.1777 9.51025C11.5041 9.18387 11.6673 8.7915 11.6673 8.33317C11.6673 7.87484 11.5041 7.48248 11.1777 7.15609C10.8513 6.8297 10.459 6.6665 10.0007 6.6665C9.54232 6.6665 9.14996 6.8297 8.82357 7.15609C8.49718 7.48248 8.33398 7.87484 8.33398 8.33317C8.33398 8.7915 8.49718 9.18387 8.82357 9.51025C9.14996 9.83664 9.54232 9.99984 10.0007 9.99984ZM10.0007 18.3332C7.76454 16.4304 6.0944 14.663 4.99023 13.0311C3.88607 11.3991 3.33398 9.88873 3.33398 8.49984C3.33398 6.4165 4.00412 4.75678 5.3444 3.52067C6.68468 2.28456 8.23676 1.6665 10.0007 1.6665C11.7645 1.6665 13.3166 2.28456 14.6569 3.52067C15.9972 4.75678 16.6673 6.4165 16.6673 8.49984C16.6673 9.88873 16.1152 11.3991 15.0111 13.0311C13.9069 14.663 12.2368 16.4304 10.0007 18.3332Z" fill="#A7A7A7"/>
</g>
</svg>
