<svg width="39" height="31" viewBox="0 0 39 31" fill="none" xmlns="http://www.w3.org/2000/svg">
<g clip-path="url(#clip0_263_2977)">
<path d="M7.06816 30.932V28.8746C7.06816 28.0876 6.59978 27.5723 5.79574 27.5723C5.39372 27.5723 4.95657 27.7081 4.65603 28.1555C4.42184 27.78 4.08617 27.5723 3.58267 27.5723C3.247 27.5723 2.91133 27.6762 2.64592 28.0517V27.6402H1.94336V30.932H2.64592V29.1143C2.64592 28.5311 2.94646 28.2554 3.41484 28.2554C3.88321 28.2554 4.1174 28.563 4.1174 29.1143V30.932H4.81996V29.1143C4.81996 28.5311 5.15563 28.2554 5.58888 28.2554C6.05725 28.2554 6.29144 28.563 6.29144 29.1143V30.932H7.06816ZM17.4895 27.6402H16.3498V26.6455H15.6472V27.6402H15.011V28.2914H15.6472V29.8014C15.6472 30.5564 15.9478 30.9999 16.7518 30.9999C17.0523 30.9999 17.388 30.896 17.6222 30.7602L17.4192 30.141C17.2163 30.2768 16.9821 30.3128 16.8143 30.3128C16.4786 30.3128 16.3459 30.105 16.3459 29.7655V28.2914H17.4856V27.6402H17.4895ZM23.4535 27.5683C23.0514 27.5683 22.7821 27.776 22.6143 28.0477V27.6362H21.9117V30.928H22.6143V29.0744C22.6143 28.5271 22.8485 28.2155 23.2856 28.2155C23.4183 28.2155 23.5862 28.2514 23.7228 28.2834L23.9257 27.5963C23.7852 27.5683 23.5862 27.5683 23.4535 27.5683ZM14.4412 27.9119C14.1055 27.6722 13.6371 27.5683 13.1336 27.5683C12.3296 27.5683 11.7948 27.9798 11.7948 28.6309C11.7948 29.1782 12.1969 29.4898 12.8994 29.5897L13.2351 29.6256C13.602 29.6936 13.8049 29.7974 13.8049 29.9692C13.8049 30.2089 13.5356 30.3807 13.0673 30.3807C12.5989 30.3807 12.2281 30.2089 11.9939 30.0371L11.6582 30.5844C12.0251 30.8601 12.5286 30.9959 13.0321 30.9959C13.9689 30.9959 14.5075 30.5485 14.5075 29.9333C14.5075 29.35 14.0704 29.0424 13.4029 28.9385L13.0673 28.9026C12.7667 28.8666 12.5325 28.7987 12.5325 28.595C12.5325 28.3553 12.7667 28.2195 13.1375 28.2195C13.5395 28.2195 13.9416 28.3912 14.1445 28.4951L14.4412 27.9119ZM33.1332 27.5683C32.7312 27.5683 32.4619 27.776 32.294 28.0477V27.6362H31.5915V30.928H32.294V29.0744C32.294 28.5271 32.5282 28.2155 32.9654 28.2155C33.0981 28.2155 33.2659 28.2514 33.4025 28.2834L33.6055 27.6043C33.4689 27.5683 33.2698 27.5683 33.1332 27.5683ZM24.156 29.2861C24.156 30.2808 24.8274 30.9999 25.8656 30.9999C26.334 30.9999 26.6696 30.896 27.0053 30.6244L26.6696 30.0411C26.4003 30.2488 26.1349 30.3487 25.8305 30.3487C25.2606 30.3487 24.8586 29.9372 24.8586 29.2861C24.8586 28.6669 25.2606 28.2554 25.8305 28.2235C26.131 28.2235 26.4003 28.3273 26.6696 28.5311L27.0053 27.9478C26.6696 27.6722 26.334 27.5723 25.8656 27.5723C24.8274 27.5683 24.156 28.2914 24.156 29.2861ZM30.6547 29.2861V27.6402H29.9522V28.0517C29.718 27.7441 29.3823 27.5723 28.9452 27.5723C28.0396 27.5723 27.3371 28.2914 27.3371 29.2861C27.3371 30.2808 28.0396 30.9999 28.9452 30.9999C29.4135 30.9999 29.7492 30.8281 29.9522 30.5205V30.932H30.6547V29.2861ZM28.0748 29.2861C28.0748 28.7028 28.4417 28.2235 29.0466 28.2235C29.6165 28.2235 30.0185 28.6709 30.0185 29.2861C30.0185 29.8693 29.6165 30.3487 29.0466 30.3487C28.4456 30.3128 28.0748 29.8653 28.0748 29.2861ZM19.6674 27.5683C18.7307 27.5683 18.0594 28.2554 18.0594 29.2821C18.0594 30.3128 18.7307 30.9959 19.7026 30.9959C20.1709 30.9959 20.6393 30.8601 21.0101 30.5485L20.6744 30.0331C20.4051 30.2409 20.0695 30.3767 19.7377 30.3767C19.3005 30.3767 18.8673 30.1689 18.7658 29.5897H21.1428C21.1428 29.4858 21.1428 29.4179 21.1428 29.3141C21.174 28.2554 20.5691 27.5683 19.6674 27.5683ZM19.6674 28.1875C20.1046 28.1875 20.4051 28.4631 20.4715 28.9745H18.797C18.8634 28.5311 19.1639 28.1875 19.6674 28.1875ZM37.1222 29.2861V26.3379H36.4196V28.0517C36.1855 27.7441 35.8498 27.5723 35.4126 27.5723C34.5071 27.5723 33.8045 28.2914 33.8045 29.2861C33.8045 30.2808 34.5071 30.9999 35.4126 30.9999C35.881 30.9999 36.2167 30.8281 36.4196 30.5205V30.932H37.1222V29.2861ZM34.5422 29.2861C34.5422 28.7028 34.9091 28.2235 35.5141 28.2235C36.084 28.2235 36.486 28.6709 36.486 29.2861C36.486 29.8693 36.084 30.3487 35.5141 30.3487C34.9091 30.3128 34.5422 29.8653 34.5422 29.2861ZM11.022 29.2861V27.6402H10.3195V28.0517C10.0853 27.7441 9.7496 27.5723 9.31245 27.5723C8.40693 27.5723 7.70437 28.2914 7.70437 29.2861C7.70437 30.2808 8.40693 30.9999 9.31245 30.9999C9.78083 30.9999 10.1165 30.8281 10.3195 30.5205V30.932H11.022V29.2861ZM8.41083 29.2861C8.41083 28.7028 8.77773 28.2235 9.38271 28.2235C9.95257 28.2235 10.3546 28.6709 10.3546 29.2861C10.3546 29.8693 9.95257 30.3487 9.38271 30.3487C8.77773 30.3128 8.41083 29.8653 8.41083 29.2861Z" fill="black"/>
<path d="M24.7611 2.64062H14.207V22.0476H24.7611V2.64062Z" fill="#FF5A00"/>
<path d="M14.9099 12.3441C14.9099 8.40116 16.721 4.90167 19.5 2.64059C17.4548 0.994716 14.8748 0 12.0606 0C5.39412 0 0 5.52088 0 12.3441C0 19.1673 5.39412 24.6881 12.0606 24.6881C14.8748 24.6881 17.4548 23.6934 19.5 22.0476C16.7171 19.8184 14.9099 16.287 14.9099 12.3441Z" fill="#EB001B"/>
<path d="M39 12.3441C39 19.1673 33.6059 24.6881 26.9394 24.6881C24.1252 24.6881 21.5452 23.6934 19.5 22.0476C22.3142 19.7825 24.0901 16.287 24.0901 12.3441C24.0901 8.40116 22.279 4.90167 19.5 2.64059C21.5413 0.994716 24.1213 0 26.9354 0C33.6059 0 39 5.55683 39 12.3441Z" fill="#F79E1B"/>
</g>
<defs>
<clipPath id="clip0_263_2977">
<rect width="39" height="31" fill="white"/>
</clipPath>
</defs>
</svg>
