<svg width="32" height="32" viewBox="0 0 32 32" fill="none" xmlns="http://www.w3.org/2000/svg">
<path d="M28.245 30.3271L17.7771 19.8591C16.9437 20.5472 15.9854 21.0856 14.9021 21.4745C13.8187 21.8634 12.698 22.0578 11.5399 22.0578C8.6913 22.0578 6.28043 21.0715 4.30732 19.0989C2.33421 17.1263 1.34766 14.7161 1.34766 11.8682C1.34766 9.02033 2.33396 6.6092 4.30657 4.63484C6.27918 2.66051 8.68943 1.67334 11.5373 1.67334C14.3852 1.67334 16.7963 2.6599 18.7707 4.63301C20.745 6.60612 21.7322 9.01698 21.7322 11.8656C21.7322 13.0558 21.5324 14.1925 21.1328 15.2758C20.7332 16.3592 20.2001 17.3015 19.5334 18.1028L30.0014 28.5707L28.245 30.3271ZM11.5399 19.5579C13.6874 19.5579 15.5063 18.8127 16.9967 17.3223C18.487 15.832 19.2322 14.013 19.2322 11.8656C19.2322 9.71815 18.487 7.89923 16.9967 6.40884C15.5063 4.91845 13.6874 4.17326 11.5399 4.17326C9.39246 4.17326 7.57355 4.91845 6.08316 6.40884C4.5928 7.89923 3.84761 9.71815 3.84761 11.8656C3.84761 14.013 4.5928 15.832 6.08316 17.3223C7.57355 18.8127 9.39246 19.5579 11.5399 19.5579Z" fill="white"/>
</svg>
