<svg width="32" height="32" viewBox="0 0 32 32" fill="none" xmlns="http://www.w3.org/2000/svg">
<mask id="mask0_261_2850" style="mask-type:alpha" maskUnits="userSpaceOnUse" x="0" y="0" width="32" height="32">
<rect width="32" height="32" fill="#D9D9D9"/>
</mask>
<g mask="url(#mask0_261_2850)">
<path d="M7.07628 28.6669C6.41133 28.6669 5.84338 28.4314 5.37245 27.9604C4.90149 27.4895 4.66602 26.9215 4.66602 26.2566V11.0772C4.66602 10.4122 4.90149 9.84429 5.37245 9.37336C5.84338 8.9024 6.41133 8.66693 7.07628 8.66693H9.99935C9.99935 7.00199 10.5831 5.58577 11.7506 4.41826C12.9181 3.25075 14.3344 2.66699 15.9993 2.66699C17.6642 2.66699 19.0805 3.25075 20.248 4.41826C21.4155 5.58577 21.9993 7.00199 21.9993 8.66693H24.9223C25.5873 8.66693 26.1553 8.9024 26.6262 9.37336C27.0971 9.84429 27.3326 10.4122 27.3326 11.0772V26.2566C27.3326 26.9215 27.0971 27.4895 26.6262 27.9604C26.1553 28.4314 25.5873 28.6669 24.9223 28.6669H7.07628ZM7.07628 26.6669H24.9223C25.0249 26.6669 25.119 26.6242 25.2044 26.5387C25.2899 26.4532 25.3327 26.3592 25.3327 26.2566V11.0772C25.3327 10.9746 25.2899 10.8806 25.2044 10.7951C25.119 10.7096 25.0249 10.6669 24.9223 10.6669H7.07628C6.9737 10.6669 6.87967 10.7096 6.79418 10.7951C6.70872 10.8806 6.66598 10.9746 6.66598 11.0772V26.2566C6.66598 26.3592 6.70872 26.4532 6.79418 26.5387C6.87967 26.6242 6.9737 26.6669 7.07628 26.6669ZM15.9993 18.0002C17.6642 18.0002 19.0805 17.4164 20.248 16.2489C21.4155 15.0814 21.9993 13.6652 21.9993 12.0002H19.9993C19.9993 13.1113 19.6104 14.0558 18.8327 14.8336C18.0549 15.6113 17.1104 16.0002 15.9993 16.0002C14.8882 16.0002 13.9438 15.6113 13.166 14.8336C12.3882 14.0558 11.9993 13.1113 11.9993 12.0002H9.99935C9.99935 13.6652 10.5831 15.0814 11.7506 16.2489C12.9181 17.4164 14.3344 18.0002 15.9993 18.0002ZM11.9993 8.66693H19.9993C19.9993 7.55581 19.6104 6.61137 18.8327 5.83359C18.0549 5.05581 17.1104 4.66693 15.9993 4.66693C14.8882 4.66693 13.9438 5.05581 13.166 5.83359C12.3882 6.61137 11.9993 7.55581 11.9993 8.66693Z" fill="#2F3033"/>
</g>
</svg>
