<svg width="33" height="32" viewBox="0 0 33 32" fill="none" xmlns="http://www.w3.org/2000/svg">
<path d="M26.1004 14.4533V10.6667C24.3271 10.6667 22.9737 10.1933 22.1004 9.27332C21.204 8.22335 20.7019 6.89369 20.6804 5.51332V5.23999L17.1004 5.15332V20.5333C16.9776 21.2044 16.6519 21.8216 16.1672 22.3016C15.6825 22.7817 15.0621 23.1014 14.39 23.2178C13.7178 23.3341 13.0261 23.2414 12.4082 22.9522C11.7904 22.6629 11.2762 22.1911 10.935 21.6003C10.5938 21.0096 10.4421 20.3284 10.5004 19.6487C10.5586 18.969 10.824 18.3236 11.2607 17.7995C11.6974 17.2754 12.2843 16.8979 12.9424 16.718C13.6004 16.538 14.2978 16.5643 14.9404 16.7933V13.1267C14.5657 13.0653 14.1867 13.0341 13.8071 13.0333C12.4411 13.0333 11.1057 13.4384 9.96992 14.1973C8.83413 14.9562 7.94888 16.0349 7.42613 17.2969C6.90338 18.5589 6.76661 19.9476 7.0331 21.2874C7.2996 22.6272 7.95739 23.8578 8.92331 24.8237C9.88922 25.7897 11.1199 26.4474 12.4596 26.7139C13.7994 26.9804 15.1881 26.8437 16.4501 26.3209C17.7122 25.7982 18.7908 24.9129 19.5497 23.7771C20.3087 22.6413 20.7137 21.306 20.7137 19.94C20.713 19.6569 20.6952 19.3742 20.6604 19.0933V12.9933C22.2883 14.0099 24.1822 14.5183 26.1004 14.4533Z" fill="#F4F4F4"/>
</svg>
